<?xml version="1.0" encoding="iso-8859-1"?>
<!-- Generator: Adobe Illustrator 19.0.0, SVG Export Plug-In . SVG Version: 6.00 Build 0)  -->
<svg version="1.1" id="Capa_1" xmlns="http://www.w3.org/2000/svg" xmlns:xlink="http://www.w3.org/1999/xlink" x="0px" y="0px"
	 viewBox="0 0 428.37 428.37" style="enable-background:new 0 0 428.37 428.37;" xml:space="preserve">
<g>
	<g>
		<rect x="352.434" y="137.418" style="fill:#00EFD1;" width="38.661" height="290.638"/>
		<rect x="274.067" y="189.663" style="fill:#00EFD1;" width="38.661" height="238.393"/>
		<rect x="195.699" y="247.132" style="fill:#00EFD1;" width="38.661" height="180.924"/>
		<rect x="116.81" y="270.643" style="fill:#00EFD1;" width="38.661" height="157.675"/>
		<rect x="37.92" y="356.847" style="fill:#00EFD1;" width="38.661" height="71.523"/>
	</g>
	<path style="fill:#00ACEA;" d="M407.291,3.149c-2.193-1.883-4.95-2.986-7.837-3.135h-68.441c-5.475-0.289-10.147,3.916-10.435,9.39
		c-0.009,0.179-0.014,0.357-0.014,0.536c0,5.771,4.678,10.449,10.449,10.449h43.363L266.753,128.536L228.091,90.92
		c-2.269-2.053-5.325-3.008-8.359-2.612l0,0c-2.294,0.575-4.433,1.645-6.269,3.135L21.201,283.704
		c-3.841,4.204-3.609,10.709,0.522,14.629c1.929,1.969,4.558,3.095,7.314,3.135c2.915-0.013,5.717-1.134,7.837-3.135
		l184.947-184.947l37.616,36.571c2.195,1.323,4.77,1.875,7.314,1.567l0,0c3.135,0,5.747,0,7.314-1.567L389.006,35.541v42.841
		c0,5.771,4.678,10.449,10.449,10.449l0,0c5.475,0.289,10.147-3.916,10.435-9.39c0.009-0.179,0.014-0.357,0.014-0.536V10.463
		C409.829,7.81,408.914,5.249,407.291,3.149z"/>
</g>
<g>
</g>
<g>
</g>
<g>
</g>
<g>
</g>
<g>
</g>
<g>
</g>
<g>
</g>
<g>
</g>
<g>
</g>
<g>
</g>
<g>
</g>
<g>
</g>
<g>
</g>
<g>
</g>
<g>
</g>
</svg>
